<?xml version="1.0" encoding="UTF-8" standalone="no"?>
<!DOCTYPE svg PUBLIC "-//W3C//DTD SVG 1.1//EN" "http://www.w3.org/Graphics/SVG/1.1/DTD/svg11.dtd">
<svg width="100%" height="100%" viewBox="0 0 216 192" version="1.1" xmlns="http://www.w3.org/2000/svg" xmlns:xlink="http://www.w3.org/1999/xlink" xml:space="preserve" xmlns:serif="http://www.serif.com/" style="fill-rule:evenodd;clip-rule:evenodd;stroke-linejoin:round;stroke-miterlimit:2;">
    <g transform="matrix(1,0,0,1,-1292.04,-99.7141)">
        <g id="Transition-Item" serif:id="Transition Item">
            <g transform="matrix(0.349228,-0.201627,0.271132,0.469615,859.241,251.35)">
                <rect x="1000" y="320" width="300" height="20" style="fill:white;"/>
                <path d="M1301.64,318.074C1303.07,316.172 1303.5,315.493 1302.59,316.557L1300,315.444L1000,317.486C998.133,317.486 996.619,318.612 996.619,320L996.865,340C996.865,341.287 998.269,342.331 1000,342.331L1300,340.29C1300.21,340.29 1300.39,340.16 1300.39,340L1300.14,320L1301.64,318.074ZM1299.8,324.554L1299.61,339.708C1299.61,339.708 1003.16,337.69 1003.16,337.69C1003.16,337.69 1003.35,322.537 1003.35,322.537L1299.8,324.554Z" style="fill-opacity:0;"/>
            </g>
            <g>
                <g transform="matrix(0.351119,-0.202719,0.271132,0.469615,956.783,215.442)">
                    <rect x="1000" y="320" width="300" height="20" style="fill:rgb(79,98,64);"/>
                    <path d="M1301.63,318.074C1303.05,316.172 1303.48,315.493 1302.58,316.557L1300,315.444L1000,317.487C998.144,317.487 996.639,318.612 996.639,320L996.882,340C996.882,341.287 998.278,342.331 1000,342.331L1300,340.289C1300.21,340.289 1300.39,340.159 1300.39,340L1300.14,320L1301.63,318.074ZM1299.8,324.554L1299.62,339.709C1299.62,339.709 1003.15,337.69 1003.15,337.69C1003.15,337.69 1003.33,322.536 1003.33,322.536L1299.8,324.554Z" style="fill-opacity:0;"/>
                </g>
                <g transform="matrix(0.351409,-0.202886,0.271132,0.469615,956.406,254.308)">
                    <rect x="1000" y="320" width="300" height="20" style="fill:rgb(79,98,64);"/>
                    <path d="M1301.63,318.074C1303.05,316.172 1303.47,315.493 1302.57,316.557L1300,315.444L1000,317.487C998.145,317.487 996.642,318.612 996.642,320L996.885,340C996.885,341.287 998.28,342.331 1000,342.331L1300,340.289C1300.21,340.289 1300.39,340.159 1300.39,340L1300.14,320L1301.63,318.074ZM1299.8,324.554L1299.62,339.709C1299.62,339.709 1003.14,337.69 1003.14,337.69C1003.14,337.69 1003.33,322.536 1003.33,322.536L1299.8,324.554Z" style="fill-opacity:0;"/>
                </g>
                <g transform="matrix(0.350512,-0.202368,0.271132,0.469615,957.303,294.802)">
                    <rect x="1000" y="320" width="300" height="20" style="fill:rgb(79,98,64);"/>
                    <path d="M1301.63,318.074C1303.06,316.172 1303.48,315.493 1302.58,316.557L1300,315.444L1000,317.487C998.14,317.487 996.632,318.612 996.632,320L996.877,340C996.877,341.287 998.275,342.331 1000,342.331L1300,340.289C1300.21,340.289 1300.39,340.16 1300.39,340L1300.14,320L1301.63,318.074ZM1299.8,324.554L1299.62,339.708C1299.62,339.708 1003.15,337.69 1003.15,337.69C1003.15,337.69 1003.34,322.536 1003.34,322.536L1299.8,324.554Z" style="fill-opacity:0;"/>
                </g>
            </g>
            <g transform="matrix(0.351621,-0.203009,0.271132,0.469615,856.13,292.732)">
                <rect x="1000" y="320" width="300" height="20" style="fill:white;"/>
                <path d="M1301.63,318.074C1303.05,316.172 1303.47,315.493 1302.57,316.557L1300,315.444L1000,317.487C998.146,317.487 996.644,318.612 996.644,320L996.887,340C996.887,341.287 998.281,342.331 1000,342.331L1300,340.289C1300.21,340.289 1300.38,340.159 1300.38,340L1300.14,320L1301.63,318.074ZM1299.8,324.554L1299.62,339.709C1299.62,339.709 1003.14,337.69 1003.14,337.69C1003.14,337.69 1003.33,322.536 1003.33,322.536L1299.8,324.554Z" style="fill-opacity:0;"/>
            </g>
            <g transform="matrix(0.351409,-0.202886,0.271132,0.469615,856.406,332.299)">
                <rect x="1000" y="320" width="300" height="20" style="fill:white;"/>
                <path d="M1301.63,318.074C1303.05,316.172 1303.47,315.493 1302.57,316.557L1300,315.444L1000,317.487C998.145,317.487 996.642,318.612 996.642,320L996.885,340C996.885,341.287 998.28,342.331 1000,342.331L1300,340.289C1300.21,340.289 1300.39,340.159 1300.39,340L1300.14,320L1301.63,318.074ZM1299.8,324.554L1299.62,339.709C1299.62,339.709 1003.14,337.69 1003.14,337.69C1003.14,337.69 1003.33,322.536 1003.33,322.536L1299.8,324.554Z" style="fill-opacity:0;"/>
            </g>
        </g>
    </g>
</svg>
